<?xml version="1.0" standalone="no"?>
<!DOCTYPE svg PUBLIC "-//W3C//DTD SVG 20010904//EN"
 "http://www.w3.org/TR/2001/REC-SVG-20010904/DTD/svg10.dtd">
<svg version="1.0" xmlns="http://www.w3.org/2000/svg"
 width="1000.000000pt" height="719.000000pt" viewBox="0 0 1000.000000 719.000000"
 preserveAspectRatio="xMidYMid meet">

<g transform="translate(0.000000,719.000000) scale(0.100000,-0.100000)"
fill="#000000" stroke="none">
<path d="M4860 6540 c-223 -18 -370 -47 -563 -111 -468 -155 -788 -478 -911
-919 -37 -135 -41 -178 -19 -220 33 -64 49 -68 440 -111 197 -21 377 -39 400
-39 33 0 50 7 77 30 28 25 40 50 70 143 40 126 78 189 158 263 114 104 256
154 437 154 167 0 286 -42 380 -132 83 -81 122 -175 141 -333 11 -103 13 -355
2 -371 -4 -6 -65 -16 -137 -23 -875 -84 -1248 -180 -1560 -399 -351 -246 -544
-632 -546 -1085 -1 -167 7 -244 36 -372 51 -217 130 -367 270 -510 100 -103
180 -160 293 -212 169 -77 290 -103 512 -110 512 -17 840 113 1216 480 l72 69
44 -63 c24 -35 66 -95 93 -134 55 -80 258 -286 306 -310 41 -21 106 -22 144
-3 17 9 93 71 170 139 77 67 217 189 312 271 151 130 173 153 179 185 10 55
-12 103 -109 236 -99 136 -158 247 -189 362 -22 79 -22 92 -29 1060 -7 987 -8
1023 -45 1180 -103 431 -408 701 -944 835 -180 45 -487 67 -700 50z m614
-2515 c-2 -342 -24 -481 -103 -651 -165 -351 -488 -510 -768 -377 -111 52
-208 183 -242 325 -18 77 -24 217 -12 300 23 165 79 278 191 388 123 122 308
201 549 235 145 20 171 22 286 21 l100 -1 -1 -240z"/>
</g>
</svg>
